<svg width="100" height="30" viewBox="0 0 100 30" fill="none" xmlns="http://www.w3.org/2000/svg">
<g clip-path="url(#clip0_10_305)">
<path d="M37.4679 8.78791V23.7879C37.4679 24.7538 37.0417 25.2178 35.7728 25.2178C35.5929 25.2178 35.4319 25.2084 35.2046 25.1894V28.6932C35.5645 28.7311 35.8107 28.7216 36.0569 28.7311C39.769 28.8447 42.0985 27.4811 42.0985 23.8826V8.78791H37.4679ZM39.7785 7.09284C41.0947 7.09284 42.1554 6.0985 42.1554 4.87691C42.1554 3.65532 41.0947 2.67047 39.7785 2.67047C38.4717 2.67047 37.4016 3.65532 37.4016 4.87691C37.4016 6.0985 38.4717 7.09284 39.7785 7.09284ZM45.046 23.3334H49.6767V8.78791H45.046V23.3334ZM47.3661 7.09284C48.6823 7.09284 49.7429 6.0985 49.7429 4.87691C49.7429 3.65532 48.6823 2.67047 47.3661 2.67047C46.0593 2.67047 44.9892 3.65532 44.9892 4.87691C44.9892 6.0985 46.0593 7.09284 47.3661 7.09284ZM60.8343 8.78791H58.2113V5.30305H53.5805V8.78791H51.6582V12.197H53.5805V19.2708C53.5521 22.216 55.465 23.6932 58.7321 23.5417C59.8495 23.4849 60.6544 23.2576 61.0995 23.125L60.3987 19.7822C60.1999 19.8296 59.7359 19.9243 59.3855 19.9243C58.6374 19.9243 58.2113 19.6212 58.2113 18.7595V12.197H60.8343V8.78791ZM71.4074 8.78791H68.7841V5.30305H64.1535V8.78791H62.2311V12.197H64.1535V19.2708C64.1251 22.216 66.0379 23.6932 69.3047 23.5417C70.4227 23.4849 71.2274 23.2576 71.6727 23.125L70.9714 19.7822C70.7727 19.8296 70.3087 19.9243 69.9587 19.9243C69.2101 19.9243 68.7841 19.6212 68.7841 18.7595V12.197H71.4074V8.78791ZM80.4127 23.608C84.2294 23.608 86.7387 21.7614 87.2687 18.9016L83.0174 18.7784C82.6574 19.7444 81.7101 20.2652 80.4981 20.2652C78.7181 20.2652 77.6194 19.0815 77.6194 17.3012V17.178H87.3161V16.0228C87.3161 11.2311 84.3994 8.59851 80.2707 8.59851C75.8767 8.59851 73.0547 11.6099 73.0547 16.1174C73.0547 20.7766 75.8394 23.608 80.4127 23.608ZM77.6194 14.4887C77.6854 13.0398 78.8314 11.9413 80.3654 11.9413C81.8901 11.9413 82.9887 13.0019 83.0074 14.4887H77.6194ZM89.6814 23.3334H94.3121V15.4356C94.3121 13.7027 95.5434 12.5379 97.2001 12.5379C97.7494 12.5379 98.5734 12.6326 99.0187 12.7841V8.75951C98.6301 8.65538 98.1474 8.58904 97.7214 8.58904C96.1301 8.58904 94.8614 9.51711 94.3307 11.4394H94.1794V8.78791H89.6814V23.3334Z" fill="black"/>
<path d="M14.6667 29.3333C22.7669 29.3333 29.3333 22.7669 29.3333 14.6667C29.3333 6.56649 22.7669 0 14.6667 0C6.56649 0 0 6.56649 0 14.6667C0 22.7669 6.56649 29.3333 14.6667 29.3333Z" fill="black"/>
</g>
<defs>
<clipPath id="clip0_10_305">
<rect width="100" height="29.3333" fill="white"/>
</clipPath>
</defs>
</svg>
