<svg width="100" height="22" viewBox="0 0 100 22" fill="none" xmlns="http://www.w3.org/2000/svg">
<g clip-path="url(#clip0_10_323)">
<path d="M38.5542 17.8567H48.0938V15.2905H41.705V3.13566H38.5542V17.8567ZM50.1221 17.8567H53.2222V6.8159H50.1221V17.8567ZM51.6794 5.50769C52.5818 5.50769 53.3603 4.83202 53.3603 3.95508C53.3603 3.08534 52.5818 2.40967 51.6794 2.40967C50.7844 2.40967 50.0059 3.08534 50.0059 3.95508C50.0059 4.83202 50.7844 5.50769 51.6794 5.50769ZM58.8052 11.4737C58.8123 10.0505 59.6711 9.21668 60.9225 9.21668C62.167 9.21668 62.9165 10.0217 62.9091 11.3731V17.8567H66.009V10.8268C66.009 8.2535 64.4809 6.67214 62.1524 6.67214C60.4932 6.67214 59.2926 7.4772 58.7906 8.76384H58.6595V6.8159H55.7052V17.8567H58.8052V11.4737ZM73.5749 18.0723C76.3473 18.0723 78.2029 16.7424 78.6395 14.6939L75.7797 14.507C75.4667 15.3481 74.659 15.7865 73.633 15.7865C72.0831 15.7865 71.1008 14.7729 71.1008 13.1269V13.1198H78.7122V12.2787C78.7122 8.52663 76.4128 6.67214 73.4584 6.67214C70.1694 6.67214 68.0373 8.97947 68.0373 12.3865C68.0373 15.8871 70.1403 18.0723 73.5749 18.0723ZM71.1008 11.2221C71.1591 9.96423 72.1341 8.95792 73.5094 8.95792C74.8483 8.95792 75.7797 9.90673 75.7943 11.2221H71.1008ZM83.966 18.0651C85.6177 18.0651 86.6875 17.3535 87.2331 16.3256H87.3205V17.8567H90.2602V10.4099C90.2602 7.77909 87.9826 6.67214 85.5667 6.67214C82.8162 6.67214 81.0771 7.93722 80.6478 9.94986L83.5147 10.1799C83.7258 9.4467 84.3879 8.9076 85.5013 8.9076C86.5709 8.9076 87.1531 9.42514 87.1605 10.3524C87.1677 11.0784 86.3964 11.1862 84.4535 11.3731C82.2413 11.5743 80.2548 12.3075 80.2548 14.7729C80.2548 16.9581 81.8338 18.0651 83.966 18.0651ZM84.8537 15.9518C83.9005 15.9518 83.2165 15.5134 83.2165 14.6723C83.2165 13.8098 83.9368 13.3857 85.0283 13.2347C85.7049 13.1414 86.8111 12.9832 87.1821 12.7388V13.9105C87.1821 15.0677 86.2144 15.9518 84.8537 15.9518ZM92.665 17.8567H95.765V11.6103C95.7723 10.2589 96.7619 9.33169 98.0135 9.33169C98.4355 9.33169 98.7776 9.4467 99.0685 9.59046L100 7.06029C99.5925 6.8159 99.0685 6.65776 98.4719 6.65776C97.2131 6.65776 96.1943 7.37656 95.7868 8.74228H95.6705V6.8159H92.665V17.8567Z" fill="black"/>
<path d="M0.136475 12.6729L9.01377 21.5503C4.48043 20.7839 0.902765 17.2063 0.136475 12.6729Z" fill="#5E6AD2"/>
<path d="M0 10.2628L11.4239 21.6867C12.1033 21.6505 12.7661 21.5517 13.4066 21.396L0.290735 8.28009C0.135094 8.92066 0.0363016 9.58343 0 10.2628Z" fill="#5E6AD2"/>
<path d="M0.859253 6.57524L15.1115 20.8275C15.6305 20.6047 16.1287 20.3425 16.6023 20.0448L1.64184 5.08435C1.34415 5.55794 1.08204 6.05616 0.859253 6.57524Z" fill="#5E6AD2"/>
<path d="M2.60754 3.77645C4.59753 1.46417 7.54558 0 10.8356 0C16.8285 0 21.6868 4.85824 21.6868 10.8512C21.6868 14.1412 20.2226 17.0893 17.9103 19.0793L2.60754 3.77645Z" fill="#5E6AD2"/>
</g>
<defs>
<clipPath id="clip0_10_323">
<rect width="100" height="21.6867" fill="white"/>
</clipPath>
</defs>
</svg>
