<svg width="100" height="35" viewBox="0 0 100 35" fill="none" xmlns="http://www.w3.org/2000/svg">
<g clip-path="url(#clip0_10_425)">
<path d="M2.07471 1.48735L21.1552 0.078148C23.4989 -0.123001 24.1011 0.0126308 25.5747 1.0839L31.6655 5.3747C32.6701 6.11263 33.0046 6.31378 33.0046 7.11723V30.6495C33.0046 32.1242 32.469 32.9966 30.5943 33.1299L8.43678 34.4713C7.02989 34.538 6.35977 34.3368 5.62299 33.3977L1.13793 27.5656C0.333333 26.492 0 25.6885 0 24.7495V3.83217C0 2.62643 0.535632 1.62068 2.07471 1.48735Z" fill="white"/>
<path fill-rule="evenodd" clip-rule="evenodd" d="M21.1552 0.078148L2.07471 1.48735C0.535632 1.62068 0 2.62643 0 3.83217V24.7495C0 25.6885 0.333333 26.492 1.13793 27.5656L5.62299 33.3977C6.35977 34.3368 7.02989 34.538 8.43678 34.4713L30.5943 33.1299C32.4678 32.9966 33.0046 32.1242 33.0046 30.6495V7.11723C33.0046 6.35516 32.7034 6.13562 31.8172 5.48505C31.7662 5.44831 31.7153 5.41153 31.6644 5.3747L25.5747 1.0839C24.1011 0.0126308 23.4989 -0.123001 21.1552 0.078148ZM8.93793 6.73217C7.12874 6.85401 6.71839 6.8816 5.6908 6.04597L3.07816 3.96781C2.81264 3.69884 2.94598 3.36321 3.61494 3.29654L21.9575 1.95631C23.4977 1.82183 24.3 2.35861 24.9023 2.82758L28.0483 5.10689C28.1828 5.1747 28.5172 5.57585 28.1149 5.57585L9.17241 6.71608L8.93793 6.73217ZM6.82874 30.4483V10.4713C6.82874 9.59884 7.09655 9.19654 7.89885 9.12873L29.6552 7.85516C30.3931 7.7885 30.7264 8.25746 30.7264 9.12873V28.9724C30.7264 29.8449 30.592 30.5828 29.3874 30.6495L8.56782 31.8564C7.36322 31.923 6.82874 31.5219 6.82874 30.4483ZM27.3805 11.5426C27.5138 12.146 27.3805 12.7495 26.777 12.8184L25.7736 13.0173V27.7667C24.9023 28.2357 24.1 28.5035 23.4299 28.5035C22.3586 28.5035 22.0908 28.1679 21.2885 27.1633L14.7264 16.8391V26.8276L16.8023 27.2977C16.8023 27.2977 16.8023 28.5046 15.1276 28.5046L10.5103 28.7724C10.3759 28.5035 10.5103 27.8334 10.9782 27.7L12.1839 27.3656V14.1587L10.5103 14.023C10.3759 13.4196 10.7103 12.5483 11.6483 12.4805L16.6023 12.1472L23.4299 22.6046V13.3529L21.6897 13.1529C21.5552 12.4138 22.0908 11.877 22.7598 11.8115L27.3805 11.5426Z" fill="black"/>
<path d="M47.6255 24.4265V15.3345H47.7829L54.3393 24.4265H56.4036V11.0656H54.1082V20.1483H53.9508L47.3944 11.0656H45.322V24.4253H47.6266L47.6255 24.4265ZM62.891 24.6311C65.9197 24.6311 67.7623 22.6495 67.7623 19.3621C67.7623 16.0839 65.9105 14.0931 62.891 14.0931C59.8818 14.0931 58.0209 16.0931 58.0209 19.3621C58.0209 22.6495 59.8542 24.6311 62.891 24.6311ZM62.891 22.7046C61.2898 22.7046 60.3737 21.4828 60.3737 19.3621C60.3737 17.2506 61.2898 16.0196 62.891 16.0196C64.4841 16.0196 65.4002 17.2506 65.4002 19.3621C65.4002 21.4828 64.4933 22.7046 62.891 22.7046ZM69.86 11.8161V14.3621H68.2588V16.1954H69.86V21.723C69.86 23.6862 70.7864 24.4736 73.1105 24.4736C73.5542 24.4736 73.9806 24.4276 74.314 24.3621V22.5656C74.0358 22.5931 73.86 22.6115 73.5358 22.6115C72.5737 22.6115 72.1473 22.1679 72.1473 21.1679V16.1954H74.314V14.3621H72.1473V11.815H69.86V11.8161ZM75.6898 24.4265H77.9772V14.2966H75.6898V24.4265ZM76.8289 12.6219C77.5875 12.6219 78.199 12.0092 78.199 11.2415C78.199 10.4725 77.5887 9.85181 76.8289 9.85181C76.0795 9.85181 75.4588 10.4725 75.4588 11.2415C75.4588 12.0092 76.0795 12.6207 76.8289 12.6207V12.6219ZM84.2519 24.6311C87.2795 24.6311 89.122 22.6495 89.122 19.3621C89.122 16.0839 87.2703 14.0931 84.2519 14.0931C81.2416 14.0931 79.3806 16.0931 79.3806 19.3621C79.3806 22.6495 81.214 24.6311 84.2519 24.6311ZM84.2519 22.7046C82.6496 22.7046 81.7324 21.4828 81.7324 19.3621C81.7324 17.2506 82.6496 16.0196 84.2519 16.0196C85.8439 16.0196 86.7611 17.2506 86.7611 19.3621C86.7611 21.4828 85.8531 22.7046 84.2519 22.7046ZM90.4887 24.4265H92.7852V18.5288C92.7852 17.038 93.6473 16.0931 95.0163 16.0931C96.4151 16.0931 97.0623 16.8713 97.0623 18.4173V24.4265H99.36V17.8713C99.36 15.4541 98.1278 14.0931 95.8691 14.0931C94.3588 14.0931 93.3404 14.7874 92.8588 15.9173H92.7013V14.2966H90.4887V24.4265Z" fill="black"/>
</g>
<defs>
<clipPath id="clip0_10_425">
<rect width="100" height="34.4828" fill="white"/>
</clipPath>
</defs>
</svg>
