<svg width="100" height="22" viewBox="0 0 100 22" fill="none" xmlns="http://www.w3.org/2000/svg">
<g clip-path="url(#clip0_10_527)">
<path d="M0 1.96345C0 0.879067 0.879067 0 1.96346 0H9.64366C10.728 0 11.6071 0.879067 11.6071 1.96346V3.48256C11.6071 4.02475 11.1676 4.46429 10.6254 4.46429H0.981723C0.439534 4.46429 0 4.02475 0 3.48256V1.96345Z" fill="black"/>
<path d="M0 8.12455C0 7.58236 0.439534 7.14282 0.981723 7.14282H19.4651C20.5495 7.14282 21.4286 8.02189 21.4286 9.1063V14.1968C21.4286 14.739 20.989 15.1785 20.4469 15.1785H1.96346C0.879068 15.1785 0 14.2994 0 13.2151V8.12455Z" fill="black"/>
<path d="M9.82153 18.8389C9.82153 18.2967 10.2611 17.8572 10.8032 17.8572H20.447C20.9891 17.8572 21.4287 18.2967 21.4287 18.8389V19.4651C21.4287 20.5495 20.5496 21.4286 19.4652 21.4286H11.785C10.7006 21.4286 9.82153 20.5495 9.82153 19.4651V18.8389Z" fill="black"/>
<path d="M33.5676 13.1617H35.6314L39.4643 19.4269H44.1571L39.9066 12.7193C42.2652 11.9085 43.6411 10.0904 43.6411 7.46141C43.6411 3.77593 41.0613 1.78577 36.909 1.78577H29.4644V19.4269H33.5676V13.1617ZM33.5676 9.82014V5.25012H36.6879C38.6289 5.25012 39.6117 6.0855 39.6117 7.53512C39.6117 8.96014 38.6289 9.82014 36.6879 9.82014H33.5676Z" fill="black"/>
<path d="M51.2169 19.6971C53.7967 19.6971 56.1555 18.395 57.1137 15.9134L53.8214 14.8568C53.4528 15.9871 52.4946 16.5768 51.2661 16.5768C49.7673 16.5768 48.7108 15.5694 48.4406 13.8003H57.212V12.7684C57.212 9.10747 55.0744 6.20825 51.1433 6.20825C47.4086 6.20825 44.6567 9.10747 44.6567 12.9404C44.6567 16.9699 47.3103 19.6971 51.2169 19.6971ZM51.0941 9.25497C52.5437 9.25497 53.3054 10.2377 53.33 11.3925H48.5634C48.9565 9.96747 49.8901 9.25497 51.0941 9.25497Z" fill="black"/>
<path d="M59.4404 15.9625C59.4404 18.6161 60.8409 19.5497 63.6419 19.5497C64.5755 19.5497 65.3126 19.4761 66.0005 19.3778V16.1591C65.5583 16.2082 65.3371 16.2328 64.8704 16.2328C63.8876 16.2328 63.3224 16.0363 63.3224 14.9552V9.7218H65.8531V6.47856H63.3224V2.89136H59.4404V6.47856H57.7942V9.7218H59.4404V15.9625Z" fill="black"/>
<path d="M80.0642 12.965C80.0642 8.9355 77.3861 6.20825 73.5777 6.20825C69.7449 6.20825 67.0913 8.9355 67.0913 12.965C67.0913 16.9944 69.7449 19.6971 73.5777 19.6971C77.3861 19.6971 80.0642 16.9944 80.0642 12.965ZM70.9979 12.965C70.9979 10.7045 72.0053 9.42693 73.5777 9.42693C75.1502 9.42693 76.1576 10.7045 76.1576 12.965C76.1576 15.2254 75.1502 16.503 73.5777 16.503C72.0053 16.503 70.9979 15.2254 70.9979 12.965Z" fill="black"/>
<path d="M94.2205 12.965C94.2205 8.9355 91.5428 6.20825 87.7343 6.20825C83.9014 6.20825 81.2478 8.9355 81.2478 12.965C81.2478 16.9944 83.9014 19.6971 87.7343 19.6971C91.5428 19.6971 94.2205 16.9944 94.2205 12.965ZM85.1545 12.965C85.1545 10.7045 86.1618 9.42693 87.7343 9.42693C89.3071 9.42693 90.3142 10.7045 90.3142 12.965C90.3142 15.2254 89.3071 16.503 87.7343 16.503C86.1618 16.503 85.1545 15.2254 85.1545 12.965Z" fill="black"/>
<path d="M100 1.78577H96.0688V19.4269H100V1.78577Z" fill="black"/>
</g>
<defs>
<clipPath id="clip0_10_527">
<rect width="100" height="21.4286" fill="white"/>
</clipPath>
</defs>
</svg>
