<svg width="100" height="25" viewBox="0 0 100 25" fill="none" xmlns="http://www.w3.org/2000/svg">
<g clip-path="url(#clip0_10_575)">
<path d="M20.9889 0H4.3624C2.05749 0 0.189453 1.86803 0.189453 4.17294V20.7994C0.189453 23.1043 2.05749 24.9724 4.3624 24.9724H20.9889C23.2938 24.9724 25.1618 23.1043 25.1618 20.7994V4.17294C25.1618 1.86803 23.2938 0 20.9889 0ZM20.6224 19.1147C20.6224 19.8428 20.0322 20.4328 19.3042 20.4328H6.04714C5.31901 20.4328 4.72898 19.8428 4.72898 19.1147V5.85769C4.72898 5.12956 5.31901 4.53952 6.04714 4.53952H19.3042C20.0322 4.53952 20.6224 5.12956 20.6224 5.85769V19.1147ZM10.0268 15.8758C9.60746 15.8758 9.271 15.5368 9.271 15.1175V9.82475C9.271 9.40544 9.60746 9.06398 10.0268 9.06398H15.327C15.7438 9.06398 16.0828 9.40293 16.0828 9.82475V15.115C16.0828 15.5343 15.7438 15.8733 15.327 15.8733H10.0268V15.8758ZM31.7828 15.5142H34.5095C34.6451 17.0583 35.6921 18.2635 37.8037 18.2635C39.6893 18.2635 40.8493 17.332 40.8493 15.9235C40.8493 14.6053 39.9404 14.0152 38.3034 13.6286L36.1893 13.1742C33.8944 12.6745 32.1669 11.1981 32.1669 8.78778C32.1669 6.12885 34.5296 4.31103 37.5978 4.31103C40.8468 4.31103 42.9383 6.01586 43.1191 8.5367H40.4827C40.1688 7.35664 39.1896 6.65361 37.6003 6.65361C35.918 6.65361 34.7606 7.56252 34.7606 8.72251C34.7606 9.88249 35.7599 10.5855 37.4874 10.9722L39.5788 11.4266C41.8737 11.9262 43.4404 13.3123 43.4404 15.7427C43.4404 18.8335 41.1229 20.6739 37.8062 20.6739C34.0777 20.6714 32.0113 18.6502 31.7828 15.5142ZM53.1949 24.9724V20.4505L53.3731 18.4669H53.1949C52.5697 19.8931 51.2566 20.6739 49.4738 20.6739C46.5991 20.6739 44.4599 18.3339 44.4599 14.7459C44.4599 11.158 46.5991 8.81792 49.4738 8.81792C51.2339 8.81792 52.4818 9.64145 53.1949 10.9345H53.3731V9.03886H55.7358V24.9724H53.1949ZM53.2828 14.7434C53.2828 12.4485 51.8792 11.1103 50.1618 11.1103C48.4444 11.1103 47.0409 12.4485 47.0409 14.7434C47.0409 17.0383 48.4444 18.3765 50.1618 18.3765C51.8792 18.3765 53.2828 17.0408 53.2828 14.7434ZM57.6214 15.926V9.03886H60.1624V15.7025C60.1624 17.5077 61.0311 18.3765 62.4799 18.3765C64.2625 18.3765 65.4225 17.106 65.4225 15.1225V9.03886H67.9634V20.448H65.6008V18.0852H65.4225C64.8651 19.6018 63.6397 20.6714 61.7467 20.6714C59.025 20.6714 57.6214 18.9339 57.6214 15.926ZM69.5101 17.2617C69.5101 15.1225 71.0039 13.8747 73.6553 13.719L76.7963 13.5182V12.6268C76.7963 11.5572 76.0155 10.9119 74.6345 10.9119C73.3641 10.9119 72.6059 11.5572 72.405 12.4711H69.8641C70.1327 10.1537 72.0485 8.81541 74.632 8.81541C77.5521 8.81541 79.3347 10.0633 79.3347 12.4711V20.448H76.9721V18.3314H76.7938C76.2591 19.7349 75.1443 20.6714 73.0051 20.6714C70.9587 20.6714 69.5101 19.2905 69.5101 17.2617ZM76.7988 15.8582V15.2556L74.2353 15.4339C72.8544 15.5217 72.2292 16.0365 72.2292 17.0609C72.2292 17.9295 72.9422 18.5548 73.9441 18.5548C75.7519 18.5548 76.7988 17.3973 76.7988 15.8582ZM81.2304 20.4505V9.03886H83.593V11.2233H83.7713C84.1053 9.72934 85.2427 9.03886 86.935 9.03886H88.095V11.3337H86.6462C84.9967 11.3337 83.7713 12.4033 83.7713 14.432V20.448H81.2304V20.4505ZM99.72 15.213H91.0502C91.1833 17.3069 92.6545 18.4895 94.2816 18.4895C95.6625 18.4895 96.5312 17.9322 97.0234 16.9956H99.5417C98.8512 19.3131 96.8225 20.6714 94.2589 20.6714C90.8945 20.6714 88.5318 18.1531 88.5318 14.7434C88.5318 11.3337 90.9597 8.81541 94.2816 8.81541C97.6234 8.81541 99.8078 11.1103 99.8078 13.9625C99.8103 14.5225 99.7651 14.8111 99.72 15.213ZM97.292 13.4528C97.2041 11.871 95.8885 10.8014 94.2841 10.8014C92.7676 10.8014 91.4996 11.7606 91.1858 13.4528H97.292Z" fill="black"/>
</g>
<defs>
<clipPath id="clip0_10_575">
<rect width="100" height="25" fill="white"/>
</clipPath>
</defs>
</svg>
